<svg width="30" height="28" viewBox="0 0 30 28" fill="none" xmlns="http://www.w3.org/2000/svg">
<path d="M23.84 7.10276C23.3292 6.62583 22.7228 6.2475 22.0554 5.98937C21.3879 5.73125 20.6725 5.59839 19.95 5.59839C19.2275 5.59839 18.5121 5.73125 17.8446 5.98937C17.1772 6.2475 16.5708 6.62583 16.06 7.10276L15 8.09209L13.94 7.10276C12.9083 6.13985 11.509 5.59889 10.05 5.59889C8.59096 5.59889 7.19169 6.13985 6.16 7.10276C5.1283 8.06567 4.54871 9.37166 4.54871 10.7334C4.54871 12.0952 5.1283 13.4012 6.16 14.3641L7.22 15.3534L15 22.6148L22.78 15.3534L23.84 14.3641C24.351 13.8874 24.7563 13.3214 25.0329 12.6984C25.3095 12.0755 25.4518 11.4077 25.4518 10.7334C25.4518 10.0591 25.3095 9.39139 25.0329 8.76843C24.7563 8.14547 24.351 7.57946 23.84 7.10276V7.10276Z" stroke="white" stroke-width="2" stroke-linecap="round" stroke-linejoin="round"/>
</svg>
